<svg xmlns="http://www.w3.org/2000/svg" viewBox="0 0 821.5 482.75">
<defs>
<style>.cls-1{opacity:0.2;}.cls-2{fill:#141414;}.cls-3{fill:#111;}.cls-4{fill:#e8e8e8;}.cls-5{fill:#3d3d3d;}.cls-6{fill:#353535;}.cls-7{fill:#a52514;}.cls-8{fill:#f7f7f7;}.cls-9{fill:#9b2819;}.cls-10,.cls-11,.cls-12,.cls-13,.cls-14,.cls-15,.cls-16,.cls-17{fill:none;stroke-miterlimit:10;}.cls-10{stroke:#bfbfbf;stroke-width:3px;}.cls-10,.cls-17{stroke-linecap:round;}.cls-11,.cls-12,.cls-13,.cls-14{stroke:#e0928c;}.cls-12{stroke-dasharray:4.96 4.96;}.cls-13{stroke-dasharray:4.97 4.97;}.cls-14,.cls-15,.cls-16{stroke-dasharray:5;}.cls-15{stroke:#d8bcba;}.cls-16{stroke:#939393;}.cls-17{stroke:#e0e0e0;stroke-width:2px;stroke-dasharray:15 8;}.cls-18{fill:#282828;}
</style>
</defs>
<g id="ground-shdow"><ellipse class="cls-1" cx="414.5" cy="456.75" rx="407" ry="26"/>
</g>
<g id="back">
<path class="cls-2" d="M616,284c-6-14-8-15-20-16s-38,74-36,106-30,35-30,35-55,17-97,65a1126.09,1126.09,0,0,0-120,72l12,19h76l130-38s78-120,80-122S616,284,616,284Z" transform="translate(-82.5 -263.25)"/>
<path class="cls-3" d="M837.5,325.5s6-1,4-7-12-5-12-5-12,3-29,0-33-4-54-13-63-29-70-32-52-15-70,12-22,38-25,49-9,35-2,50l15-15,7-46,16-31,19-14,49,18,67,25,57,12Z" transform="translate(-82.5 -263.25)"/>
</g>
<g id="grey-toe">
<path class="cls-4" d="M139.5,573.5l17.5-4s73.5-24,179.5-29l13,90s-28,10-29,10-104-20-105-20-93-30-93-30Z" transform="translate(-82.5 -263.25)"/>
</g>
<g id="black-toe">
<path class="cls-5" d="M325.5,577.5s17,35,2,42-29-7-34-12-18-8-29-9-97-10-108-14-29-10,3-15c0,0-27-1-37,12s-26,37-26,55l43,15,109,20,140,13,24-3-19-47-38-43Z" transform="translate(-82.5 -263.25)"/>
</g>
<g id="black-ankle"><polygon class="cls-6" points="534 147.25 542 125.25 648 172.25 661 210.25 659 230.25 602 226.25 546 199.25 529 170.25 534 147.25"/>
<path class="cls-6" d="M858.5,392.5s1-16-3-31-4-16-6-26-7-12-16-12-42-2-74-12-82-30-82-30l-5,3-18,35Z" transform="translate(-82.5 -263.25)"/>
</g>
<g id="red-ankle-back">
<path class="cls-1" d="M861.5,404.5c2-6-4-12-13-15-4.82-1.61-66.36-24.12-125.13-45.78-13.92,33.26-29.7,66-44.9,98.72l6,3.07c51,26,46,44,46,44l27-3,54-10,54-21C875.5,435.5,861.5,404.5,861.5,404.5Z" transform="translate(-82.5 -263.25)"/>
<path class="cls-7" d="M865.5,399.5c2-6-4-12-13-15-4.82-1.61-66.36-24.12-125.13-45.78-13.92,33.26-29.7,66-44.9,98.72l6,3.07c51,26,46,44,46,44l27-3,54-10,54-21C879.5,430.5,865.5,399.5,865.5,399.5Z" transform="translate(-82.5 -263.25)"/>
</g>
<g id="white-body">
<path class="cls-8" d="M880.5,494.5s7-38-8-48c0,0-66,30-133,33s-113-33-113-33l-93,24-100,69v29l16,53,30,50,216-10,44-107,139-55Z" transform="translate(-82.5 -263.25)"/>
</g>
<g id="red-heel">
<path class="cls-1" d="M878,494.5v11s1,1,2,11,1,29,4,46,9,56,2,86l-205,13s37-86,42-97,13-13,23-17S879.76,491.72,878,494.5Z" transform="translate(-82.5 -263.25)"/>
<path class="cls-7" d="M887.5,489.5v11s1,1,2,11,1,29,4,46,9,56,2,86l-205,13s37-86,42-97,13-13,23-17S889.26,486.72,887.5,489.5Z" transform="translate(-82.5 -263.25)"/>
</g>
<g id="black-tounge">
<path class="cls-5" d="M625.5,400.5s3,18,4,30,0,27-25,34-48,5-58,11-28,12-41,29-34,28-46,30-24,9-24,9l-11-13v-39s30-11,41-20,23-39,56-42,57-5,55-18-10-35,9-47Z" transform="translate(-82.5 -263.25)"/>
<path class="cls-5" d="M661.5,318.5s11-25,13-29,8-11-11-16-39-10-49,3-15,29-15,29Z" transform="translate(-82.5 -263.25)"/>
</g>
<g id="red-ankle-front">
<path class="cls-1" d="M615.5,302.5c-17-7-25,7-28,15,0,0-6.56,15-10,46-2.89,26,50.27,52.2,101,77.93,15.2-32.68,31-65.45,44.9-98.72C672.34,323.91,623.4,305.75,615.5,302.5Z" transform="translate(-82.5 -263.25)"/>
<path class="cls-7" d="M619.5,298.5c-17-7-25,7-28,15,0,0-6.56,15-10,46-2.89,26,50.27,52.2,101,77.93,15.2-32.68,31-65.45,44.9-98.72C676.34,319.91,627.4,301.75,619.5,298.5Z" transform="translate(-82.5 -263.25)"/>
</g>
<g id="black-side">
<path class="cls-1" d="M399.5,680.5s-35-53-57-76-47-38-23-56,41-18,56-29,34-40,48-32,8.32,39.76,13,69c4,25,5,36,16,55,14.36,24.8,40,66,40,66Z" transform="translate(-82.5 -263.25)"/>
<path class="cls-6" d="M402.5,678.5s-35-53-57-76-47-38-23-56,41-18,56-29,34-40,48-32,8.32,39.76,13,69c4,25,5,36,16,55,14.36,24.8,40,66,40,66Z" transform="translate(-82.5 -263.25)"/>
</g>
<g id="sole">
<path class="cls-9" d="M900,711a10,10,0,0,1,2,10c-2,6-3,10-19,12s-181.5,9.5-229.5,9.5-229,1-266,0-164-10-228-32-73-30-75-56h7l36,18,86,26,64,17,171,6h191l98-2,108-6Z" transform="translate(-82.5 -263.25)"/>
<path class="cls-4" d="M901.5,706.5s2-41,2-52-4.07-11.79-17.54-10.4S629.5,657.5,583.5,659.5s-143,17-202,14-190-9-252-30c-21-8-28-11-33-18-3-4-10,3-9,15,0,0-5,1-5,11,0,17,135,68,217,71,54,2,252,4,299,4s183-2,233-6S900.5,718.5,901.5,706.5Z" transform="translate(-82.5 -263.25)"/>
</g>
<g id="stiches">
<path class="cls-10" d="M89.5,642.5s86,49,260,47,190-10,292-13,142-14,257-14" transform="translate(-82.5 -263.25)"/>
<path class="cls-11" d="M863.5,394.5l-2.34-.87" transform="translate(-82.5 -263.25)"/>
<path class="cls-12" d="M856.52,391.9c-38.66-14.39-225.16-83.82-235-87.4-11-4-24,3-29,21s-7.5,47.14,10,58c29,18,52,31,70,40,23.07,11.54,65.08,33,70.48,51.08" transform="translate(-82.5 -263.25)"/>
<path class="cls-11" d="M743.49,477a11.53,11.53,0,0,1,0,2.49" transform="translate(-82.5 -263.25)"/>
<path class="cls-11" d="M866.5,401.5l-2.34-.87" transform="translate(-82.5 -263.25)"/>
<path class="cls-13" d="M859.51,398.89c-39-14.52-227.92-84.93-236.29-88-9.33-3.39-20.36,2.54-24.6,17.81s-6.36,40,8.48,49.2c24.6,15.27,44.28,26,59.38,33.93,38.26,20.18,80,38.94,83.8,61.66" transform="translate(-82.5 -263.25)"/>
<path class="cls-11" d="M750.54,476a20.11,20.11,0,0,1,0,2.5" transform="translate(-82.5 -263.25)"/>
<path class="cls-14" d="M887.5,500.5s-121,50-131,54-15,3-21,18-35,84-35,84" transform="translate(-82.5 -263.25)"/>
<path class="cls-14" d="M894.5,506.5s-121,50-131,54-15,3-21,18-35,84-35,84" transform="translate(-82.5 -263.25)"/>
<path class="cls-15" d="M618.5,453.5s55,31,113,31c71,0,146-32,146-32" transform="translate(-82.5 -263.25)"/>
<path class="cls-15" d="M618.5,456.5s55,31,113,31c71,0,146-32,146-32" transform="translate(-82.5 -263.25)"/>
<path class="cls-16" d="M486.5,670.5s-30-45-37-57-16-37-17-50-2-52-3-59-8-18-17-11-26,27-44,36-37,17-41,25-12,16,12,32S410.75,677,410.75,677" transform="translate(-82.5 -263.25)"/>
<path class="cls-16" d="M473,663.85s-31.08-52.4-36.72-62.15-11.19-30.3-12-40.85-1.61-42.23-2.42-47.91-6.45-14.62-13.71-8.93-21,21.93-35.48,29.23-29.83,13.81-33.06,20.3-9.68,13,9.68,26,67.21,90,67.21,90" transform="translate(-82.5 -263.25)"/>
<path class="cls-16" d="M146.5,570.5s-23,11,1,16c19,4,130,15,138,20s23,24,40,17,13-17,9-31" transform="translate(-82.5 -263.25)"/>
<path class="cls-16" d="M138.5,572.5s-16,12,8,17c19,4,130,16,138,21s26,23,43,16,14-18,10-32" transform="translate(-82.5 -263.25)"/>
<path class="cls-16" d="M435.5,537.5s5-5,16-6,33-5,49-33c4-8,26-29,67-32,14,0,59-6,58-27s-3-34-3-34" transform="translate(-82.5 -263.25)"/>
<path class="cls-16" d="M433.5,534.5s5-5,16-6,33-5,49-33c4-8,26-29,67-32,14,0,58-6,57-27s-4-34-4-34" transform="translate(-82.5 -263.25)"/>
<path class="cls-16" d="M577.5,379.5c-1,8,2,29,4,34s-4,16-20,17-42,1-53,7-18,15-22,21-20,20-33,26a99.52,99.52,0,0,1-22.89,7.64" transform="translate(-82.5 -263.25)"/>
<path class="cls-16" d="M582.5,382.5c-1,8,3,29,5,34s-8,16-24,17-42,1-53,7-18,15-22,21-20,20-33,26a99.52,99.52,0,0,1-22.89,7.64" transform="translate(-82.5 -263.25)"/>
<path class="cls-17" d="M89.5,642.5s86,49,260,47,190-10,292-13,142-14,257-14" transform="translate(-82.5 -263.25)"/>
</g>
<g id="laces">
<path class="cls-18" d="M380,549c12.55-8.69-2-24-4-28s-6-19-20-9,0,25,0,25S367,558,380,549Z" transform="translate(-82.5 -263.25)"/>
<path class="cls-18" d="M352,563c12.55-8.69-2-24-4-28s-6-19-20-9,0,25,0,25S339,572,352,563Z" transform="translate(-82.5 -263.25)"/>
<path class="cls-18" d="M411,527c9.51-8.46-4-24-12-30s-14-3-20,3,3,13,8,18S402,535,411,527Z" transform="translate(-82.5 -263.25)"/>
<path class="cls-18" d="M459,509c10.36-7.53,2-21-5-29s-17-18-27-10,0,18,7,26S448,517,459,509Z" transform="translate(-82.5 -263.25)"/>
<path class="cls-18" d="M494,482c11.16-8.68,0-26-16-31s-24-3-30,5,14,9,22,18S485,489,494,482Z" transform="translate(-82.5 -263.25)"/>
<path class="cls-18" d="M537,458c8.17-6.81-5-27-27-32s-27-1-32,7,14,4,25,15S525,468,537,458Z" transform="translate(-82.5 -263.25)"/>
<path class="cls-18" d="M605,441c9.62-9.62-15-30-30-36s-32-19-47-3,13,10,35,25S594,452,605,441Z" transform="translate(-82.5 -263.25)"/>
<path class="cls-18" d="M616,358c1.12,12.32-14,20-31,23s-39,15-35-4,17-21,33-25S615,347,616,358Z" transform="translate(-82.5 -263.25)"/>
</g>
<span id="swoosh-whole">
<g id="swoosh-shadow">
<path class="cls-1" d="M560.2,471.27l-1.5,2.67c-5.41,9.76-9.71,19.95-11.7,31-1.47,8.14-1.67,16.3,1.37,24.14C553,541,562,548,574.47,550.34a72.69,72.69,0,0,0,29.78-.89c12.22-2.76,24.32-6,36.43-9.25q69.71-18.47,139.39-37l106.59-28.33a55.26,55.26,0,0,1,7.31-1.56c-3.13,1.35-6.26,2.71-9.39,4.05q-126.94,54.32-253.9,108.61C618.39,591.19,606,596.29,593.55,601a133.07,133.07,0,0,1-35.23,8.2c-10.35.94-20.63.54-30.22-3.89-15.49-7.16-23.51-19.39-23.66-36.57-.1-11.09,3-21.48,7.25-31.57,6.31-14.86,15.43-28,25.7-40.29,7.11-8.53,14.59-16.75,21.9-25.11a8.79,8.79,0,0,0,.56-.8Z" transform="translate(-82.5 -263.25)"/>
</g>
<g id="swoosh">
<path d="M565.2,462.27l-1.5,2.67c-5.41,9.76-9.71,19.95-11.7,31-1.47,8.14-1.67,16.3,1.37,24.14C558,532,567,539,579.47,541.34a72.69,72.69,0,0,0,29.78-.89c12.22-2.76,24.32-6,36.43-9.25q69.71-18.47,139.39-37l106.59-28.33a55.26,55.26,0,0,1,7.31-1.56c-3.13,1.35-6.26,2.71-9.39,4.05q-126.94,54.32-253.9,108.61C623.39,582.19,611,587.29,598.55,592a133.07,133.07,0,0,1-35.23,8.2c-10.35.94-20.63.54-30.22-3.89-15.49-7.16-23.51-19.39-23.66-36.57-.1-11.09,3-21.48,7.25-31.57,6.31-14.86,15.43-28,25.7-40.29,7.11-8.53,14.59-16.75,21.9-25.11a8.79,8.79,0,0,0,.56-.8Z" transform="translate(-82.5 -263.25)"/>
</g>
</span>
</svg>