<?xml version="1.0" encoding="utf-8"?>
<!-- Generator: Adobe Illustrator 21.1.0, SVG Export Plug-In . SVG Version: 6.00 Build 0)  -->
<svg version="1.1" id="Layer_1" xmlns="http://www.w3.org/2000/svg" xmlns:xlink="http://www.w3.org/1999/xlink" x="0px" y="0px"
	 viewBox="0 0 705 1000" style="enable-background:new 0 0 705 1000;" xml:space="preserve">
<style type="text/css">
	.st0{fill:#E2DED3;}
	.st1{fill:#222222;}
	.st2{fill:#2828D1;}
	.st3{fill:#E52424;}
</style>
<rect x="18.6" y="8" class="st0" width="655" height="840.2"/>
<g>
	<polygon class="st1" points="591.5,62.6 564.2,62.6 564.2,89.9 591.5,89.9 591.5,117.2 591.5,144.5 591.5,171.8 618.8,171.8 
		618.8,144.5 618.8,117.2 618.8,89.9 618.8,62.6 	"/>
	<polygon class="st1" points="509.6,89.9 509.6,117.2 482.3,117.2 482.3,144.5 509.6,144.5 509.6,171.8 536.9,171.8 536.9,144.5 
		536.9,117.2 536.9,89.9 536.9,62.6 509.6,62.6 	"/>
	<polygon class="st1" points="455,89.9 455,62.6 427.7,62.6 427.7,89.9 427.7,117.2 427.7,144.5 427.7,171.8 455,171.8 455,144.5 
		455,117.2 482.3,117.2 482.3,89.9 	"/>
	<polygon class="st1" points="345.8,62.6 345.8,89.9 345.8,117.2 345.8,144.5 345.8,171.8 373.1,171.8 400.4,171.8 400.4,144.5 
		400.4,117.2 373.1,117.2 373.1,89.9 400.4,89.9 400.4,62.6 373.1,62.6 	"/>
	<polygon class="st1" points="263.9,62.6 263.9,89.9 291.2,89.9 291.2,117.2 291.2,144.5 291.2,171.8 318.5,171.8 318.5,144.5 
		318.5,117.2 318.5,89.9 318.5,62.6 291.2,62.6 	"/>
	<polygon class="st1" points="209.3,117.2 182,117.2 182,89.9 209.3,89.9 209.3,62.6 182,62.6 154.7,62.6 154.7,89.9 154.7,117.2 
		154.7,144.5 154.7,171.8 182,171.8 182,144.5 209.3,144.5 209.3,171.8 236.6,171.8 236.6,144.5 236.6,117.2 236.6,89.9 209.3,89.9 
			"/>
	<polygon class="st1" points="72.8,62.6 72.8,89.9 72.8,117.2 72.8,144.5 72.8,171.8 100.1,171.8 100.1,144.5 100.1,117.2 
		127.4,117.2 127.4,89.9 127.4,62.6 100.1,62.6 	"/>
</g>
<polygon class="st2" points="633,859.8 605.7,859.8 578.4,859.8 578.4,887.1 578.4,914.4 578.4,941.7 578.4,969 605.7,969 
	605.7,941.7 605.7,914.4 633,914.4 633,941.7 633,969 660.3,969 660.3,941.7 660.3,914.4 660.3,887.1 660.3,859.8 "/>
<rect x="337.4" y="77.5" transform="matrix(-1.836970e-16 1 -1 -1.836970e-16 699.625 1.375)" class="st1" width="23.5" height="546"/>
<rect x="337.4" y="146.5" transform="matrix(-1.836970e-16 1 -1 -1.836970e-16 768.625 70.375)" class="st1" width="23.5" height="546"/>
<rect x="337.4" y="215.5" transform="matrix(-1.836970e-16 1 -1 -1.836970e-16 837.625 139.375)" class="st1" width="23.5" height="546"/>
<rect x="337.4" y="422.5" transform="matrix(-1.836970e-16 1 -1 -1.836970e-16 1044.625 346.375)" class="st1" width="23.5" height="546"/>
<rect x="337.4" y="491.5" transform="matrix(-1.836970e-16 1 -1 -1.836970e-16 1113.625 415.375)" class="st1" width="23.5" height="546"/>
<rect x="337.4" y="353.5" transform="matrix(-1.836970e-16 1 -1 -1.836970e-16 975.625 277.375)" class="st1" width="23.5" height="546"/>
<rect x="337.4" y="284.5" transform="matrix(-1.836970e-16 1 -1 -1.836970e-16 906.625 208.375)" class="st1" width="23.5" height="546"/>
<polygon class="st3" points="660.3,750.6 660.3,723.3 633,723.3 605.7,723.3 578.4,723.3 578.4,750.6 551.1,750.6 551.1,777.9 
	551.1,805.2 551.1,832.5 578.4,832.5 578.4,859.8 605.7,859.8 633,859.8 660.3,859.8 660.3,832.5 687.6,832.5 687.6,805.2 
	687.6,777.9 687.6,750.6 "/>
</svg>
